<?xml version="1.0" encoding="UTF-8"?>
<svg version="1.1" xmlns="http://www.w3.org/2000/svg" width="1080" height="1080">
<path d="M0 0 C356.4 0 712.8 0 1080 0 C1080 356.4 1080 712.8 1080 1080 C723.6 1080 367.2 1080 0 1080 C0 723.6 0 367.2 0 0 Z " fill="#000000" transform="translate(0,0)"/>
<path d="M0 0 C2.20274374 -0.00322125 4.40548728 -0.00658595 6.60823059 -0.01008606 C11.20993546 -0.01604648 15.81162163 -0.01792916 20.41333008 -0.01733398 C26.26174706 -0.01723256 32.11004212 -0.03087868 37.95843029 -0.04810619 C42.50481194 -0.05931546 47.05116494 -0.06125047 51.59755898 -0.06072426 C53.75136039 -0.0618912 55.90516288 -0.06623913 58.05895042 -0.07405663 C68.18892953 -0.10738455 78.24058249 -0.03918941 88.3215332 1.0456543 C89.03534999 1.1216602 89.74916677 1.19766611 90.48461437 1.27597523 C103.78454559 2.90796301 113.53068064 9.57103547 122.08203125 19.54296875 C133.39639714 34.08438856 133.73660127 51.52984415 133.6328125 69.24609375 C133.63229194 71.03293863 133.63281718 72.81978409 133.63432312 74.60662842 C133.63423421 78.32117448 133.62396948 82.03549983 133.60571289 85.75 C133.5829622 90.4790831 133.58250265 95.20784688 133.58923054 99.93696976 C133.59259146 103.61585259 133.58590175 107.29466434 133.5761013 110.97353363 C133.57229055 112.71641415 133.57108367 114.45930263 133.57268715 116.20218658 C133.57563732 135.36061488 131.68476927 151.58494429 117.7109375 165.984375 C102.93583873 179.19922334 86.35755958 180.25759887 67.484375 180.59765625 C61.29586907 180.79437697 56.37830361 181.18968807 51.6875 185.68359375 C49.3299432 189.00662619 47.12993904 192.3734219 45.06640625 195.88671875 C44.48209839 196.88010254 44.48209839 196.88010254 43.88598633 197.89355469 C43.11434741 199.21855571 42.35329449 200.54979257 41.60424805 201.88769531 C38.74951671 206.84298137 35.88348236 210.29665171 30.26953125 212.16796875 C26.29333897 212.54308123 23.84456926 212.43788455 20.20703125 210.73046875 C15.38549847 206.5244508 12.53335839 201.29678211 9.2890625 195.83203125 C8.94407715 195.25702881 8.5990918 194.68202637 8.24365234 194.08959961 C7.25049532 192.42817842 6.27330234 190.75724564 5.296875 189.0859375 C2.69540571 185.34162621 0.68159386 182.6870202 -3.94848633 181.69067383 C-6.66777934 181.35475658 -9.37071706 181.14838599 -12.10546875 180.98046875 C-13.57777954 180.86505737 -13.57777954 180.86505737 -15.07983398 180.74731445 C-19.40274045 180.41717843 -23.72168044 180.15106889 -28.0546875 180.00390625 C-43.17134525 179.40366279 -55.54880923 173.96093535 -65.98046875 162.91796875 C-75.76664132 151.30927012 -78.88497259 138.68463254 -78.87573242 123.83105469 C-78.87909103 123.03961563 -78.88244965 122.24817657 -78.88591003 121.43275452 C-78.89533969 118.8392679 -78.89735918 116.2458464 -78.8984375 113.65234375 C-78.90165592 111.83164443 -78.90502042 110.01094537 -78.90852356 108.19024658 C-78.9144951 104.38089397 -78.91636552 100.57156399 -78.91577148 96.76220703 C-78.91567004 91.90961632 -78.92931247 87.05717252 -78.94654369 82.20461655 C-78.95772839 78.44510243 -78.9596887 74.68562309 -78.95916176 70.92609406 C-78.96033252 69.13854721 -78.96470276 67.35099918 -78.97249413 65.56346893 C-79.0535033 45.05697375 -76.71472403 28.89066509 -62.08203125 13.42578125 C-45.36680299 -2.31099462 -21.18687458 0.00733395 0 0 Z " fill="#926DFE" transform="translate(512.73046875,382.83203125)"/>
<path d="M0 0 C1.98 0 3.96 0 6 0 C7 1 7 1 7.0625 3.5625 C7.041875 4.366875 7.02125 5.17125 7 6 C7.47050781 5.65066406 7.94101562 5.30132813 8.42578125 4.94140625 C9.04839844 4.48636719 9.67101562 4.03132812 10.3125 3.5625 C10.92738281 3.11003906 11.54226563 2.65757812 12.17578125 2.19140625 C17.84462238 -1.51094181 25.51555101 -0.58150429 32 0 C37.93601647 1.91599928 41.06037213 5.8543433 44.08984375 11.1328125 C47.05596428 17.21781513 47.13926556 24.43488449 45.09375 30.8359375 C42.08159528 37.26572931 38.75801996 41.16468793 32.3125 44.3125 C23.80910637 46.07735528 17.4312389 45.54131266 10 41 C9.67 40.67 9.34 40.34 9 40 C8.67 46.93 8.34 53.86 8 61 C5.36 61 2.72 61 0 61 C0 40.87 0 20.74 0 0 Z " fill="#F1F1F1" transform="translate(575,645)"/>
<path d="M0 0 C4.6537268 2.95872717 7.72119771 6.88267788 10 11.90234375 C10 12.89234375 10 13.88234375 10 14.90234375 C4.76635514 15.42570824 4.76635514 15.42570824 2 14.90234375 C-0.125 12.15234375 -0.125 12.15234375 -2 8.90234375 C-9.11812012 3.52743672 -15.28074867 3.16027981 -24 3.90234375 C-30.89194391 5.88998901 -34.30405462 9.87386986 -37.75 16.02734375 C-39.99544133 21.77816849 -40.03224472 27.86932841 -38.05078125 33.69140625 C-35.80742174 38.48950641 -33.6088321 42.06613938 -29 44.90234375 C-28.17822266 45.43214844 -28.17822266 45.43214844 -27.33984375 45.97265625 C-23.97517289 47.30953716 -20.69197202 47.27079885 -17.125 47.27734375 C-16.08279297 47.31408203 -16.08279297 47.31408203 -15.01953125 47.3515625 C-9.8372807 47.38084075 -6.9971737 46.12146432 -3 42.90234375 C1.09372759 38.69165251 1.74965452 35.90326504 4 29.90234375 C-3.92 29.90234375 -11.84 29.90234375 -20 29.90234375 C-20 27.59234375 -20 25.28234375 -20 22.90234375 C-9.44 22.90234375 1.12 22.90234375 12 22.90234375 C12 32.53696498 10.72190592 39.43605665 4.5 46.90234375 C3.675 47.56234375 2.85 48.22234375 2 48.90234375 C1.21625 49.60359375 0.4325 50.30484375 -0.375 51.02734375 C-8.14585846 56.57795694 -15.56091529 57.06554409 -25 55.90234375 C-32.56618658 53.47220182 -38.74169526 49.68461058 -43 42.90234375 C-43.40992188 42.29261719 -43.81984375 41.68289063 -44.2421875 41.0546875 C-48.2688645 33.84832418 -48.13170544 24.90540058 -47 16.90234375 C-45.12348587 10.71138524 -41.93656662 6.09842538 -37 1.90234375 C-36.236875 1.20109375 -35.47375 0.49984375 -34.6875 -0.22265625 C-23.50862884 -8.02186869 -11.39376181 -6.25321693 0 0 Z " fill="#F5F5F5" transform="translate(395,634.09765625)"/>
<path d="M0 0 C2.31 0 4.62 0 7 0 C7.33 7.59 7.66 15.18 8 23 C9.65 21.68 11.3 20.36 13 19 C17.9521376 16.5239312 24.62137941 17.32905867 30 18 C35.44432924 20.69023307 38.05207046 24.54477531 40.365448 30.07008362 C41.37659711 33.14537646 41.33441512 36.02709201 41.29296875 39.24609375 C41.28872391 39.90207047 41.28447906 40.55804718 41.28010559 41.23390198 C41.26348779 43.30220911 41.22587238 45.36949401 41.1875 47.4375 C41.17243111 48.85089725 41.15874659 50.26430998 41.14648438 51.67773438 C41.11364104 55.11881435 41.06198015 58.55930719 41 62 C38.36 62 35.72 62 33 62 C32.98541748 61.11739502 32.97083496 60.23479004 32.95581055 59.32543945 C32.89457933 56.03561357 32.8203967 52.7466007 32.73754883 49.45727539 C32.70439443 48.03648798 32.67633308 46.61557187 32.65356445 45.19458008 C32.61984153 43.1460918 32.56752255 41.0987728 32.51171875 39.05078125 C32.48553467 37.82012939 32.45935059 36.58947754 32.43237305 35.3215332 C31.96946394 31.76541889 31.13956291 29.84809626 29 27 C25.0743073 24.71001259 21.47589017 24.52885367 17 25 C12.64297154 27.09472522 10.42877077 29.1922368 8.61572266 33.68383789 C7.25407853 38.80593059 7.41310487 44.16867909 7.3125 49.4375 C7.27833984 50.64599609 7.24417969 51.85449219 7.20898438 53.09960938 C7.12690165 56.06631349 7.05761985 59.03273676 7 62 C4.69 62 2.38 62 0 62 C0 41.54 0 21.08 0 0 Z " fill="#F1F1F1" transform="translate(633,627)"/>
<path d="M0 0 C2.31 0 4.62 0 7 0 C7 7.59 7 15.18 7 23 C9.64 21.35 12.28 19.7 15 18 C20.66016588 17.01562333 26.11632007 17.37210669 31.5625 19.1875 C35.88629919 22.40263273 38.35049271 25.90205006 40 31 C40.22705078 34.41333008 40.22705078 34.41333008 40.1953125 38.26953125 C40.1924826 38.95053391 40.18965271 39.63153656 40.18673706 40.33317566 C40.17560525 42.49313455 40.15051457 44.65266794 40.125 46.8125 C40.11496111 48.28319711 40.10583685 49.75390076 40.09765625 51.22460938 C40.07568913 54.81654286 40.0412082 58.40822985 40 62 C37.69 62 35.38 62 33 62 C32.9906543 61.1529248 32.98130859 60.30584961 32.97167969 59.43310547 C32.92747388 56.26805648 32.86577473 53.10395188 32.79248047 49.93945312 C32.76438377 48.57401836 32.74311323 47.20842436 32.72900391 45.84277344 C32.70742018 43.87145962 32.6586454 41.90050369 32.609375 39.9296875 C32.58842773 38.74616699 32.56748047 37.56264648 32.54589844 36.34326172 C31.80505132 31.80607013 29.87955631 28.4258703 26.1875 25.625 C21.47796125 24.2794175 18.10875816 24.42429865 13.75 26.6875 C10.05091052 29.79809798 8.23529607 32.29234307 7.56762695 37.13793945 C7.54144287 38.28480225 7.51525879 39.43166504 7.48828125 40.61328125 C7.45283203 41.86044922 7.41738281 43.10761719 7.38085938 44.39257812 C7.35830078 45.68615234 7.33574219 46.97972656 7.3125 48.3125 C7.27833984 49.62541016 7.24417969 50.93832031 7.20898438 52.29101562 C7.12660728 55.52725851 7.05741984 58.76323385 7 62 C4.69 62 2.38 62 0 62 C0 41.54 0 21.08 0 0 Z " fill="#F9F9F9" transform="translate(420,627)"/>
<path d="M0 0 C3.88446678 2.58964452 6.69907021 5.64814041 8.8125 9.875 C9.6315258 16.34664647 8.65516238 21.55531426 4.8125 26.875 C1.30569222 30.21481693 -1.40214855 31.13333265 -6.125 31.3125 C-10.87241193 31.09119208 -14.09977564 30.32763461 -18.1875 27.875 C-22.48002648 22.45286129 -23.89325303 17.74955732 -23.1875 10.875 C-21.32893173 5.60905656 -18.58435804 3.08104232 -14.1875 -0.125 C-9.20670617 -1.78526461 -4.88476371 -1.72403425 0 0 Z " fill="#040404" transform="translate(605.1875,652.125)"/>
<path d="M0 0 C2.64 0 5.28 0 8 0 C8.01401855 1.31605225 8.01401855 1.31605225 8.02832031 2.65869141 C8.07251603 5.93567422 8.13420652 9.21138143 8.20751953 12.48779297 C8.23562392 13.90173448 8.25689067 15.31583002 8.27099609 16.72998047 C8.29257456 18.77130384 8.33929086 20.81079599 8.390625 22.8515625 C8.41157227 24.07697754 8.43251953 25.30239258 8.45410156 26.56494141 C9.0968351 30.6093336 10.46358578 32.82087717 13 36 C17.27124202 38.13562101 21.94643719 37.33793524 26.3125 35.9375 C29.75433443 33.45617751 30.9405144 31.00143138 32 27 C32.49229202 22.52432077 32.60158136 18.06218178 32.6875 13.5625 C32.72166016 12.35400391 32.75582031 11.14550781 32.79101562 9.90039062 C32.87309835 6.93368651 32.94238015 3.96726324 33 1 C35.31 1 37.62 1 40 1 C40 15.19 40 29.38 40 44 C38.02 44 36.04 44 34 44 C33.67 42.35 33.34 40.7 33 39 C31.88625 39.928125 31.88625 39.928125 30.75 40.875 C24.96023991 45.34890553 20.21949677 45.79875283 13 45 C7.47285524 43.37376374 4.79194215 39.82607411 1.9453125 35 C-0.05880161 30.75989081 -0.11811929 26.93119823 -0.09765625 22.265625 C-0.09443359 20.97011719 -0.09121094 19.67460938 -0.08789062 18.33984375 C-0.07953598 16.97656183 -0.07107104 15.61328058 -0.0625 14.25 C-0.05748168 12.87109535 -0.05291935 11.49218896 -0.04882812 10.11328125 C-0.03704093 6.74214341 -0.02058635 3.37109372 0 0 Z " fill="#EFEFEF" transform="translate(687,645)"/>
<path d="M0 0 C2.82743035 2.68950692 3.90459262 3.926667 4.25 7.8125 C4.1675 8.534375 4.085 9.25625 4 10 C1.69 10 -0.62 10 -3 10 C-3.33 8.35 -3.66 6.7 -4 5 C-7.23275701 4.04469355 -10.19675639 3.83539622 -13.5625 3.8125 C-14.98755859 3.79123047 -14.98755859 3.79123047 -16.44140625 3.76953125 C-19.24225243 3.81641112 -19.24225243 3.81641112 -22 6 C-22.58350505 8.45709375 -22.58350505 8.45709375 -22 11 C-19.00341038 13.82114526 -16.22553494 14.60840528 -12.25 15.4375 C-6.13227671 16.87169154 -0.84650512 18.5982613 4 22.6875 C5.61986762 26.43344387 5.63044789 29.99522308 5 34 C2.92913858 37.81038501 0.34491213 39.95659545 -3.75 41.4921875 C-10.95606026 43.11855527 -18.93236842 43.18817014 -25.41015625 39.33984375 C-28.2901041 36.91276239 -29.51522744 34.46446931 -31 31 C-31 29.68 -31 28.36 -31 27 C-28.69 27 -26.38 27 -24 27 C-23.5875 27.94875 -23.175 28.8975 -22.75 29.875 C-21.28550642 32.93946871 -21.28550642 32.93946871 -19.3125 34.375 C-13.92895418 35.83001238 -8.94565941 35.54776394 -4 33 C-2.58422523 31.81575674 -2.58422523 31.81575674 -2.9375 28.4375 C-2.9684375 26.7359375 -2.9684375 26.7359375 -3 25 C-4.134375 24.76925781 -5.26875 24.53851562 -6.4375 24.30078125 C-25.11745927 20.32381109 -25.11745927 20.32381109 -30 13 C-30.70188829 8.64176342 -30.55029428 5.0547307 -28.5 1.125 C-20.01041764 -6.091145 -9.21507783 -5.67648794 0 0 Z " fill="#F2F2F2" transform="translate(771,648)"/>
<path d="M0 0 C3.66461749 1.95077698 5.89159663 4.49286523 7.5 8.27734375 C7.5 9.59734375 7.5 10.91734375 7.5 12.27734375 C4.1875 12.58984375 4.1875 12.58984375 0.5 12.27734375 C-1.25 9.83984375 -1.25 9.83984375 -2.5 7.27734375 C-5.58506088 6.24899012 -7.7694272 6.14365941 -11 6.15234375 C-11.9590625 6.14976562 -12.918125 6.1471875 -13.90625 6.14453125 C-16.61571152 6.16741403 -16.61571152 6.16741403 -19.5 7.27734375 C-19.91746608 10.15099166 -19.91746608 10.15099166 -19.5 13.27734375 C-15.90776743 16.62183615 -10.92185183 17.26372528 -6.2890625 18.46875 C-0.1820205 20.23927898 5.28499053 22.51711845 8.5 28.27734375 C8.96422498 31.99114359 8.80383237 34.46079427 7.5 37.96484375 C3.7091048 42.34806632 -0.11289017 43.97721818 -5.85546875 44.69921875 C-12.38342043 44.95110113 -17.62179947 44.80605574 -22.9453125 40.7734375 C-25.32868803 38.47988768 -26.99749825 36.21974301 -28.5 33.27734375 C-28.5 31.95734375 -28.5 30.63734375 -28.5 29.27734375 C-25.86 29.27734375 -23.22 29.27734375 -20.5 29.27734375 C-20.17 31.25734375 -19.84 33.23734375 -19.5 35.27734375 C-13.56999867 37.25401086 -8.27369001 38.24495657 -2.0625 36.65234375 C0.31935385 34.55631236 0.23442208 32.33148987 0.5 29.27734375 C-4.58986334 25.82874152 -9.89014091 24.81707882 -15.80859375 23.4375 C-20.23360256 22.04678294 -24.02343099 20.22373017 -26.875 16.46484375 C-27.81707395 13.16758492 -27.91260656 10.69608385 -27.5 7.27734375 C-21.97273076 -2.38987217 -9.84978166 -2.84720251 0 0 Z " fill="#F3F3F3" transform="translate(554.5,645.72265625)"/>
<path d="M0 0 C2.31 0 4.62 0 7 0 C7.01458252 0.81154541 7.02916504 1.62309082 7.04418945 2.45922852 C7.11897632 6.16078193 7.21553761 9.86146379 7.3125 13.5625 C7.33505859 14.83931641 7.35761719 16.11613281 7.38085938 17.43164062 C7.58207125 26.64184265 7.58207125 26.64184265 11 35 C15.04898806 37.69932537 18.24932159 37.53528771 23 37 C27.23590529 35.25038695 28.97091532 33.05816937 31 29 C32.03714522 25.88856433 32.20031861 23.50531904 32.31640625 20.23828125 C32.37924805 18.56088867 32.37924805 18.56088867 32.44335938 16.84960938 C32.48267578 15.68236328 32.52199219 14.51511719 32.5625 13.3125 C32.62727539 11.54422852 32.62727539 11.54422852 32.69335938 9.74023438 C32.79951176 6.82694117 32.90156242 3.91356243 33 1 C35.31 1 37.62 1 40 1 C40 15.19 40 29.38 40 44 C38.02 44 36.04 44 34 44 C33.34 42.68 32.68 41.36 32 40 C30.6078125 40.9590625 30.6078125 40.9590625 29.1875 41.9375 C23.62947273 45.53387059 18.46835098 45.66722245 12 45 C6.6945255 42.39549434 3.12560551 38.78771458 0.90283203 33.28271484 C-0.09469027 29.65570433 -0.22743256 26.60960943 -0.1953125 22.8515625 C-0.1924826 22.19417084 -0.18965271 21.53677917 -0.18673706 20.85946655 C-0.17563447 18.78111767 -0.15054986 16.70321634 -0.125 14.625 C-0.11495731 13.20703752 -0.10583373 11.78906821 -0.09765625 10.37109375 C-0.07572805 6.91391963 -0.04126818 3.45700358 0 0 Z " fill="#F7F7F7" transform="translate(474,645)"/>
<path d="M0 0 C3.39890142 2.06889652 5.88937011 4.11279537 7 8 C6.9188061 12.4656646 6.47785505 14.43637609 3.5625 17.875 C0.80398803 20.16254651 -0.22925395 20.91241522 -3.75 21.3125 C-7.85767229 20.91753151 -9.82926614 19.5942368 -13 17 C-15.12326225 14.32284324 -15.00133584 13.03673574 -14.875 9.5625 C-13.92645533 5.70056814 -12.74586726 3.82907536 -10 1 C-6.79386153 -0.60306924 -3.47860003 -0.48740461 0 0 Z " fill="#FBFAFF" transform="translate(544,468)"/>
<path d="M0 0 C3.86134614 0.04843983 6.16579789 0.80078068 9.25 3.25 C11.73386059 6.97579089 11.6304212 8.83711402 11.25 13.25 C9.60265048 16.87416894 7.79597317 19.37851416 4.25 21.25 C0.90874937 21.74500009 -1.50868821 21.97317495 -4.5 20.23046875 C-7.20893997 18.07503815 -8.64647648 16.56057057 -9.75 13.25 C-10.125 9.875 -10.125 9.875 -9.75 6.25 C-7.3125 3.375 -7.3125 3.375 -4.75 1.25 C-3.75 0.25 -3.75 0.25 0 0 Z " fill="#FCFBFF" transform="translate(581.75,467.75)"/>
<path d="M0 0 C3.86134614 0.04843983 6.16579789 0.80078068 9.25 3.25 C11.73386059 6.97579089 11.6304212 8.83711402 11.25 13.25 C9.60265048 16.87416894 7.79597317 19.37851416 4.25 21.25 C0.90874937 21.74500009 -1.50868821 21.97317495 -4.5 20.23046875 C-7.20893997 18.07503815 -8.64647648 16.56057057 -9.75 13.25 C-10.125 9.875 -10.125 9.875 -9.75 6.25 C-7.3125 3.375 -7.3125 3.375 -4.75 1.25 C-3.75 0.25 -3.75 0.25 0 0 Z " fill="#FCFAFF" transform="translate(496.75,467.75)"/>
</svg>
