<?xml version="1.0" encoding="UTF-8"?>
<svg version="1.1" xmlns="http://www.w3.org/2000/svg" width="1127" height="375">
<path d="M0 0 C371.91 0 743.82 0 1127 0 C1127 123.75 1127 247.5 1127 375 C755.09 375 383.18 375 0 375 C0 251.25 0 127.5 0 0 Z " fill="#000000" transform="translate(0,0)"/>
<path d="M0 0 C1.73671249 -0.00215285 3.47342355 -0.00604083 5.21012878 -0.01150513 C9.8710822 -0.02108991 14.53164472 -0.00603529 19.1925509 0.01440096 C24.09826634 0.03214161 29.00397275 0.02844368 33.90971375 0.02767944 C42.13779126 0.02954425 50.36571999 0.04680073 58.59375 0.07421875 C68.07955762 0.10571303 77.56520294 0.11621261 87.05105907 0.11474764 C97.19791626 0.11339276 107.34471173 0.12729005 117.49155021 0.14564085 C120.39657883 0.14988429 123.30159737 0.15132054 126.2066288 0.15211868 C130.78277622 0.15414042 135.35878961 0.16645382 139.93489265 0.18645096 C141.60530526 0.19224813 143.27573329 0.19476253 144.94615555 0.19359589 C163.79319427 0.18541968 180.03739824 2.25507539 194.26831055 15.70458984 C200.21848767 21.99156945 204.65031484 28.98599537 208.9206543 36.48583984 C209.33186523 37.16001953 209.74307617 37.83419922 210.16674805 38.52880859 C213.95978871 45.21459623 215.21042763 53.06682839 216.9206543 60.48583984 C217.09991833 61.10839346 217.27918236 61.73094707 217.46387863 62.37236595 C218.01659891 64.92976987 218.05295842 67.29345175 218.06109619 69.91079712 C218.06680634 71.01251251 218.07251648 72.11422791 218.07839966 73.24932861 C218.07951752 74.45353455 218.08063538 75.65774048 218.08178711 76.8984375 C218.08675201 78.17042999 218.09171692 79.44242249 218.09683228 80.75296021 C218.10993509 84.24088634 218.11639759 87.72879324 218.12084293 91.21674013 C218.1237783 93.39915886 218.12788407 95.58157239 218.13234711 97.76398849 C218.14601914 104.60157929 218.1556861 111.43915814 218.159549 118.27676165 C218.16402313 126.1518278 218.18154214 134.02671981 218.21054959 141.90173304 C218.23222552 147.99958764 218.24225649 154.09739347 218.24359012 160.19528615 C218.24463432 163.83190512 218.25045912 167.46836034 218.26840973 171.10493851 C218.28808001 175.16902323 218.28357801 179.23274777 218.27709961 183.296875 C218.28631439 184.48893555 218.29552917 185.68099609 218.30502319 186.90917969 C218.27199951 193.54240091 218.13851679 200.50418375 214.9206543 206.48583984 C213.2500293 206.91896484 213.2500293 206.91896484 211.5456543 207.36083984 C210.3494043 207.73208984 209.1531543 208.10333984 207.9206543 208.48583984 C206.64259442 210.82551999 206.64259442 210.82551999 205.6706543 213.73583984 C201.21811488 225.89638193 191.84306952 235.45193423 181.9206543 243.48583984 C181.10467773 244.20642578 180.28870117 244.92701172 179.44799805 245.66943359 C174.41700711 249.80501438 169.59943803 252.21857945 163.2644043 253.66162109 C162.16182533 253.91632675 162.16182533 253.91632675 161.03697205 254.17617798 C151.45623031 256.21875476 141.73615297 256.2520484 131.9765625 256.3984375 C119.18919218 256.56660395 119.18919218 256.56660395 107.88232422 262.16308594 C105.16438077 263.99579504 103.01912205 264.1087989 99.7956543 263.86083984 C98.86495117 263.80669922 97.93424805 263.75255859 96.9753418 263.69677734 C96.29729492 263.62716797 95.61924805 263.55755859 94.9206543 263.48583984 C94.65381836 264.77619141 94.38698242 266.06654297 94.11206055 267.39599609 C93.00890769 272.35775409 91.5025907 277.11806462 89.8581543 281.92333984 C89.58938477 282.72449219 89.32061523 283.52564453 89.04370117 284.35107422 C87.07653904 290.17407036 87.07653904 290.17407036 85.9206543 292.48583984 C83.45936153 292.97628194 81.09551126 293.33478177 78.6081543 293.61083984 C77.89208008 293.69575684 77.17600586 293.78067383 76.43823242 293.86816406 C70.25763008 294.55199295 64.13648984 294.69774333 57.9206543 294.48583984 C56.9306543 291.51583984 55.9406543 288.54583984 54.9206543 285.48583984 C52.6106543 285.48583984 50.3006543 285.48583984 47.9206543 285.48583984 C46.41566421 281.19590651 44.91750792 276.90361826 43.4206543 272.61083984 C42.77676758 270.77585937 42.77676758 270.77585937 42.11987305 268.90380859 C41.71381836 267.73720703 41.30776367 266.57060547 40.8894043 265.36865234 C40.51235352 264.28986816 40.13530273 263.21108398 39.74682617 262.09960938 C38.9206543 259.48583984 38.9206543 259.48583984 38.9206543 257.48583984 C38.29803711 257.49744141 37.67541992 257.50904297 37.03393555 257.52099609 C30.06548585 257.58902838 23.13102425 257.36979414 16.1706543 257.04833984 C15.28418213 257.009104 14.39770996 256.96986816 13.484375 256.92944336 C9.00191033 256.71104215 4.62624607 256.31444974 0.17651367 255.71118164 C-6.17278836 255.07693859 -12.61709398 255.15468259 -18.9934082 255.05615234 C-31.32014386 254.72449129 -41.07303399 252.18637324 -50.13793945 243.51708984 C-63.86615977 228.74520365 -77.10747157 206.85818381 -77.23324585 186.13526917 C-77.24614655 184.54451065 -77.24614655 184.54451065 -77.25930786 182.9216156 C-77.26356781 181.7679097 -77.26782776 180.6142038 -77.2722168 179.42553711 C-77.28039429 178.20193481 -77.28857178 176.97833252 -77.29699707 175.71765137 C-77.32182955 171.66251953 -77.33853645 167.6074251 -77.3527832 163.55224609 C-77.35814928 162.1470381 -77.3635268 160.74183015 -77.36891556 159.33662224 C-77.3905507 153.47659604 -77.40927391 147.61657247 -77.42053795 141.75651646 C-77.43668371 133.41589645 -77.46962252 125.0757492 -77.5269388 116.73530728 C-77.56601745 110.84276751 -77.58521584 104.95035197 -77.59045851 99.05768627 C-77.59406616 95.5546912 -77.60558053 92.05220085 -77.63856125 88.54934883 C-77.82025778 68.22777544 -76.5427156 49.23189305 -68.0793457 30.48583984 C-67.0793457 29.48583984 -67.0793457 29.48583984 -64.0168457 29.42333984 C-62.5627832 29.45427734 -62.5627832 29.45427734 -61.0793457 29.48583984 C-60.7390332 28.21740234 -60.7390332 28.21740234 -60.3918457 26.92333984 C-58.52856367 22.04331546 -56.25945067 17.80537706 -51.7043457 15.04833984 C-48.44488736 14.34988448 -45.40210424 14.35553559 -42.0793457 14.48583984 C-42.0793457 12.17583984 -42.0793457 9.86583984 -42.0793457 7.48583984 C-28.3994274 1.28552108 -14.83643482 -0.10876417 0 0 Z " fill="#8F6DFA" transform="translate(122.079345703125,59.51416015625)"/>
<path d="M0 0 C6.01465141 2.84744257 7.97031814 7.4833611 10.20703125 13.453125 C11.69064936 18.93955954 11.41443153 24.63394079 11.3984375 30.2734375 C11.41455078 31.39814453 11.43066406 32.52285156 11.44726562 33.68164062 C11.45304928 43.63531248 9.48424071 51.51518206 4.7109375 60.2734375 C4.14632812 61.33175781 3.58171875 62.39007813 3 63.48046875 C-0.66828296 69.19250936 -4.21470298 72.25795168 -10.703125 73.953125 C-21.13734735 75.60330615 -31.62386372 75.96624048 -40.9140625 70.4609375 C-40.96232178 71.05374512 -41.01058105 71.64655273 -41.06030273 72.25732422 C-41.6462458 78.79367494 -42.69800456 85.15248694 -43.9765625 91.5859375 C-44.16283203 92.54242188 -44.34910156 93.49890625 -44.54101562 94.484375 C-44.99464694 96.81068944 -45.45377129 99.13593165 -45.9140625 101.4609375 C-49.2140625 101.4609375 -52.5140625 101.4609375 -55.9140625 101.4609375 C-55.93919301 97.42652354 -55.95712105 93.39214125 -55.96899414 89.35766602 C-55.97395523 87.99144698 -55.98072622 86.62523306 -55.98950195 85.2590332 C-56.07584638 71.44900337 -54.96389676 58.11714726 -52.9140625 44.4609375 C-52.48947304 41.49831895 -52.07437054 38.53439752 -51.66015625 35.5703125 C-51.55321442 34.80618042 -51.44627258 34.04204834 -51.33609009 33.25476074 C-51.11781034 31.6942841 -50.89974331 30.13377769 -50.68188477 28.57324219 C-50.46065337 26.99110254 -50.23864103 25.40907191 -50.01586914 23.82714844 C-48.82695441 15.38229317 -47.67331555 6.95774695 -46.9140625 -1.5390625 C-43.52336961 -1.77771136 -40.29521468 -1.98952948 -36.9140625 -1.5390625 C-34.2890625 0.9609375 -34.2890625 0.9609375 -32.9140625 3.4609375 C-32.33140625 3.0278125 -31.74875 2.5946875 -31.1484375 2.1484375 C-20.95514759 -4.77530659 -11.45941755 -3.56683857 0 0 Z " fill="#E7E7E7" transform="translate(810.9140625,165.5390625)"/>
<path d="M0 0 C0.83708496 0.00563965 1.67416992 0.0112793 2.53662109 0.01708984 C12.53922261 0.21360079 20.99560951 2.49948398 28.625 9.3125 C33.23514489 14.17162484 33.04961841 18.543527 32.9765625 25.08203125 C32.94304687 26.27183594 32.90953125 27.46164063 32.875 28.6875 C32.85695313 29.90050781 32.83890625 31.11351562 32.8203125 32.36328125 C32.77332961 35.34669459 32.70159116 38.32969991 32.625 41.3125 C28.335 41.3125 24.045 41.3125 19.625 41.3125 C19.50382813 40.01054687 19.38265625 38.70859375 19.2578125 37.3671875 C19.08890615 35.6405893 18.91961499 33.91402872 18.75 32.1875 C18.67136719 31.3315625 18.59273437 30.475625 18.51171875 29.59375 C17.87786373 22.74768589 17.87786373 22.74768589 15.625 16.3125 C10.4061674 13.69179486 5.34337598 13.90868153 -0.375 13.875 C-1.35984375 13.84212891 -2.3446875 13.80925781 -3.359375 13.77539062 C-9.30839696 13.70681795 -9.30839696 13.70681795 -14.375 16.6015625 C-15.035 17.49617188 -15.695 18.39078125 -16.375 19.3125 C-16.91125 19.93769531 -17.4475 20.56289062 -18 21.20703125 C-29.39269916 37.09855195 -31.26181717 60.41693347 -29.375 79.3125 C-28.48272275 83.79045834 -27.07889744 88.02811437 -25.46875 92.29296875 C-24.375 95.3125 -24.375 95.3125 -24.375 98.3125 C-19.90871599 98.24344752 -15.44332415 98.15539769 -10.9777832 98.05004883 C-9.45998379 98.01688084 -7.94206344 97.98882368 -6.42407227 97.96606445 C-4.23661981 97.93236722 -2.05026736 97.88004796 0.13671875 97.82421875 C1.45115967 97.79803467 2.76560059 97.77185059 4.11987305 97.74487305 C7.7884911 97.29233264 9.71617898 96.55008053 12.625 94.3125 C15.29526381 88.9887665 15.28930214 82.7906285 15.75 76.9375 C15.83636719 75.91527344 15.92273438 74.89304687 16.01171875 73.83984375 C16.22271999 71.33127346 16.42475512 68.82195182 16.625 66.3125 C11.345 66.3125 6.065 66.3125 0.625 66.3125 C0.625 63.3425 0.625 60.3725 0.625 57.3125 C10.195 57.3125 19.765 57.3125 29.625 57.3125 C29.625 94.09540636 29.625 94.09540636 23.5625 102.75 C19.62069595 106.18859502 15.58724809 107.78565443 10.625 109.3125 C9.46613281 109.67085938 8.30726563 110.02921875 7.11328125 110.3984375 C1.35151369 111.79637899 -4.47728409 111.68081325 -10.375 111.6875 C-12.08042969 111.72423828 -12.08042969 111.72423828 -13.8203125 111.76171875 C-23.81785401 111.79651298 -30.01713398 109.34334975 -37.375 102.3125 C-44.96711189 94.29977249 -44.7250789 83.28627467 -44.625 72.8125 C-44.61823242 71.77512695 -44.61146484 70.73775391 -44.60449219 69.66894531 C-44.28425187 45.38281314 -40.19944365 23.38887925 -22.375 5.3125 C-15.7138101 0.39100231 -7.9866665 -0.05632346 0 0 Z " fill="#E3E3E3" transform="translate(497.375,128.6875)"/>
<path d="M0 0 C3.3 0 6.6 0 10 0 C10 13.2 10 26.4 10 40 C12.97 38.02 15.94 36.04 19 34 C27.02639972 31.32453343 36.30685055 32.81445694 44 36 C48.96011862 40.04907643 51.29447913 43.65031216 52 50 C52.20186806 57.65545812 51.54194199 65.13864101 50.75 72.75 C50.55410278 74.65108521 50.55410278 74.65108521 50.35424805 76.59057617 C49.16660748 87.52886299 47.31468771 98.24903932 45 109 C41.7 109 38.4 109 35 109 C35 88.54 35 68.08 35 47 C17.14310178 45.15941239 17.14310178 45.15941239 9 52 C8.34 52 7.68 52 7 52 C5.26357603 60.80945763 3.73028472 69.58409027 2.60546875 78.49609375 C1.27754278 88.6913724 -0.41419363 98.8422985 -2 109 C-4.97 109 -7.94 109 -11 109 C-11.29277709 95.90852663 -10.38802811 83.08733768 -9.125 70.0625 C-8.94853687 68.17258959 -8.77275331 66.28261559 -8.59765625 64.39257812 C-7.78021509 55.64604305 -6.90942367 46.90520488 -5.9609375 38.171875 C-5.88634308 37.47220108 -5.81174866 36.77252716 -5.7348938 36.051651 C-5.02356363 29.65396109 -3.90342702 23.34246984 -2.73046875 17.015625 C-1.68624561 11.36453505 -0.84034375 5.68467828 0 0 Z " fill="#EAEAEA" transform="translate(551,130)"/>
<path d="M0 0 C3.3 0 6.6 0 10 0 C10.33 11.88 10.66 23.76 11 36 C12.32 35.34 13.64 34.68 15 34 C22.94659227 32.28602912 33.34617374 30.88000899 40.6875 35 C45.39112037 38.57884158 47.1863561 43.55906831 49 49 C49.90660905 62.71803523 48.06713983 75.68799242 45.53466797 89.14550781 C44.87500356 92.66733262 44.25902422 96.19593243 43.64575195 99.72607422 C43.10741924 102.81924565 42.55424843 105.90964509 42 109 C38.7 109 35.4 109 32 109 C32.09087891 107.65421875 32.09087891 107.65421875 32.18359375 106.28125 C32.31463828 104.32969454 32.44540644 102.37811738 32.57202148 100.42626953 C32.78810638 97.10182814 33.01784691 93.781496 33.2890625 90.4609375 C33.99832338 81.15948766 34.10786827 71.88810782 34.125 62.5625 C34.12959229 61.25071777 34.13418457 59.93893555 34.13891602 58.58740234 C34.13690186 57.36359863 34.1348877 56.13979492 34.1328125 54.87890625 C34.13112061 53.21710327 34.13112061 53.21710327 34.12939453 51.52172852 C34.28550111 49.06218695 34.28550111 49.06218695 33 48 C25.35512787 47.44460331 17.61101204 48.33194879 10 49 C4.20467736 68.69467369 0.7464779 88.6821202 -2 109 C-5.3 109 -8.6 109 -12 109 C-11.40982236 72.55653093 -7.31995039 35.71248523 0 0 Z " fill="#E7E7E7" transform="translate(845,130)"/>
<path d="M0 0 C5.82540463 4.51064317 5.82540463 4.51064317 6.64111328 8.55761719 C7.02659397 13.27572904 6.71221827 17.91511524 6.25 22.6171875 C2.95 22.6171875 -0.35 22.6171875 -3.75 22.6171875 C-6.72 17.1721875 -6.72 17.1721875 -9.75 11.6171875 C-12.62525669 11.56293737 -15.49947646 11.52339473 -18.375 11.4921875 C-19.18324219 11.47542969 -19.99148438 11.45867187 -20.82421875 11.44140625 C-25.55093815 11.40297764 -29.30387702 11.78981656 -33.75 13.6171875 C-33.75 17.5771875 -33.75 21.5371875 -33.75 25.6171875 C-30.87605502 26.43358068 -28.0009487 27.24540891 -25.125 28.0546875 C-24.31675781 28.28478516 -23.50851562 28.51488281 -22.67578125 28.75195312 C-18.3831826 29.9559747 -14.17457793 30.99431002 -9.75 31.6171875 C-9.75 32.2771875 -9.75 32.9371875 -9.75 33.6171875 C-9.01394531 33.72933594 -8.27789063 33.84148437 -7.51953125 33.95703125 C-2.62767251 35.12307374 0.53966397 37.35902102 3.25 41.6171875 C4.675778 49.64252475 4.17842756 58.25290191 0.64453125 65.6953125 C-1.81348334 69.0828284 -4.84075406 70.39180206 -8.75 71.6171875 C-9.71421875 71.96910156 -10.6784375 72.32101563 -11.671875 72.68359375 C-17.37247346 74.27534402 -23.31546009 74.02613625 -29.1875 74.0546875 C-30.97124023 74.10399414 -30.97124023 74.10399414 -32.79101562 74.15429688 C-40.02717854 74.19849332 -45.31959428 73.68768329 -50.75 68.6171875 C-53.96255588 64.76085814 -54.08702896 61.73914307 -53.9375 56.8046875 C-53.91042969 55.64324219 -53.88335938 54.48179687 -53.85546875 53.28515625 C-53.82066406 52.40472656 -53.78585937 51.52429688 -53.75 50.6171875 C-50.26076083 50.04851874 -47.22365475 49.88873594 -43.75 50.6171875 C-42.125 52.60351562 -42.125 52.60351562 -40.6875 55.0859375 C-38.55326667 58.03961858 -37.47157944 59.40269103 -33.94360352 60.45141602 C-30.70359284 60.72434689 -27.56260732 60.76262792 -24.3125 60.6796875 C-23.19939453 60.68677734 -22.08628906 60.69386719 -20.93945312 60.70117188 C-18.20701528 60.71289908 -15.48146341 60.68380856 -12.75 60.6171875 C-12.605625 59.4621875 -12.46125 58.3071875 -12.3125 57.1171875 C-11.53125 50.8671875 -11.53125 50.8671875 -10.75 44.6171875 C-11.70253662 44.45899536 -11.70253662 44.45899536 -12.67431641 44.29760742 C-15.57631104 43.8098839 -18.47557043 43.30742592 -21.375 42.8046875 C-22.37402344 42.63904297 -23.37304688 42.47339844 -24.40234375 42.30273438 C-33.59393178 40.68964111 -40.40736934 37.62899479 -46.75 30.6171875 C-49.4801412 24.47436981 -49.24770461 18.10111979 -48.3125 11.5546875 C-44.6932405 4.75047964 -37.96413153 -0.21291638 -30.7578125 -2.765625 C-20.84775511 -4.7991173 -9.14470594 -4.59833225 0 0 Z " fill="#D8D8D8" transform="translate(739.75,166.3828125)"/>
<path d="M0 0 C0.66 0.7425 1.32 1.485 2 2.25 C2.763125 3.03375 3.52625 3.8175 4.3125 4.625 C6.96271823 10.31806139 6.30473748 16.07060119 6 22.25 C3.03 22.25 0.06 22.25 -3 22.25 C-3.17789062 21.46753906 -3.35578125 20.68507812 -3.5390625 19.87890625 C-4.9049664 16.0219474 -5.92672003 14.01423505 -9 11.25 C-16.1106147 9.44818956 -23.72998061 9.98462578 -31 10.25 C-31.66 15.2 -32.32 20.15 -33 25.25 C-31.12054687 25.78109375 -29.24109375 26.3121875 -27.3046875 26.859375 C-24.8279676 27.57237012 -22.3514137 28.28594206 -19.875 29 C-18.6375 29.34804687 -17.4 29.69609375 -16.125 30.0546875 C-14.32675781 30.57675781 -14.32675781 30.57675781 -12.4921875 31.109375 C-11.39245605 31.42358398 -10.29272461 31.73779297 -9.15966797 32.06152344 C-5.69399888 33.36509917 -3.00031467 35.09626061 0 37.25 C0.61101562 37.66765625 1.22203125 38.0853125 1.8515625 38.515625 C3.77723481 41.42378318 3.43028553 44.63372556 3.375 48 C3.38660156 48.6909375 3.39820313 49.381875 3.41015625 50.09375 C3.37720818 55.93654041 2.05808246 60.73560062 -1.7265625 65.359375 C-2.35304688 65.90078125 -2.97953125 66.4421875 -3.625 67 C-4.23601562 67.55171875 -4.84703125 68.1034375 -5.4765625 68.671875 C-12.90373158 73.31672997 -20.48351178 73.74637016 -29.0625 73.6875 C-30.09955078 73.70748047 -31.13660156 73.72746094 -32.20507812 73.74804688 C-38.82563653 73.74384868 -43.42047571 72.82672552 -49 69.25 C-50.22976563 68.63705078 -50.22976563 68.63705078 -51.484375 68.01171875 C-53.99159207 65.09740201 -53.41530462 61.70238062 -53.25 58.0625 C-53.23195313 57.31291016 -53.21390625 56.56332031 -53.1953125 55.79101562 C-53.14824109 53.9434629 -53.07649766 52.09656841 -53 50.25 C-49.7 50.25 -46.4 50.25 -43 50.25 C-41.68373308 53.86973402 -41 56.34567131 -41 60.25 C-31.43 60.25 -21.86 60.25 -12 60.25 C-12 54.97 -12 49.69 -12 44.25 C-13.77375 43.87875 -15.5475 43.5075 -17.375 43.125 C-23.1463923 41.78193176 -28.79473664 40.18332552 -34.4375 38.375 C-35.19401855 38.14280762 -35.95053711 37.91061523 -36.72998047 37.67138672 C-41.78676063 36.00521519 -45.41440737 34.25939518 -49 30.25 C-49.63589463 27.22950053 -49.86548876 25.18518663 -49.75 22.1875 C-49.73187256 21.43960205 -49.71374512 20.6917041 -49.69506836 19.92114258 C-49.32121274 12.86622264 -47.55189537 6.79385628 -43 1.25 C-40.12337828 -0.76711298 -37.38869067 -1.88126294 -34 -2.75 C-33.09121094 -3.03230469 -33.09121094 -3.03230469 -32.1640625 -3.3203125 C-22.54655524 -5.22992585 -8.55499752 -4.99041522 0 0 Z " fill="#DCDCDC" transform="translate(1033,166.75)"/>
<path d="M0 0 C3.3 0 6.6 0 10 0 C10 19.47 10 38.94 10 59 C17.26 58.67 24.52 58.34 32 58 C36.84027883 52.48225342 36.84027883 52.48225342 38.6171875 46.32421875 C38.84631836 45.19032715 39.07544922 44.05643555 39.31152344 42.88818359 C40.67119527 35.20941282 41.92661973 27.51798015 43.125 19.8125 C43.52026089 17.28085641 43.91689845 14.7494627 44.31759644 12.21867371 C44.56463098 10.65775747 44.80851553 9.0963386 45.04885864 7.53437805 C45.8876085 2.22478299 45.8876085 2.22478299 47 0 C50.3 0 53.6 0 57 0 C55.52232663 24.05107835 53.30718582 48.01635002 51 72 C49.22298966 72.05404784 47.44550947 72.09281431 45.66796875 72.125 C44.67821045 72.14820313 43.68845215 72.17140625 42.66870117 72.1953125 C40 72 40 72 37.3125 70 C36.879375 69.34 36.44625 68.68 36 68 C35.4225 68.639375 34.845 69.27875 34.25 69.9375 C29.60285414 74.19738371 23.23845691 73.28832497 17.25 73.375 C15.80367187 73.43107422 15.80367187 73.43107422 14.328125 73.48828125 C6.00406101 73.59007008 1.71533965 71.18541799 -4.46484375 65.88671875 C-6.89664415 61.31394395 -6.63083952 56.91557052 -6.5625 51.8125 C-6.55661865 50.69931396 -6.5507373 49.58612793 -6.54467773 48.43920898 C-6.21542834 32.91578831 -4.92675667 14.78027 0 0 Z " fill="#DBDBDB" transform="translate(911,167)"/>
<path d="M0 0 C0.90492188 0.02320313 1.80984375 0.04640625 2.7421875 0.0703125 C3.65226563 0.08835938 4.56234375 0.10640625 5.5 0.125 C6.19867187 0.14820313 6.89734375 0.17140625 7.6171875 0.1953125 C6.05884093 21.34609696 4.11663847 42.26115892 0.6171875 63.1953125 C0.33705811 64.88333984 0.33705811 64.88333984 0.05126953 66.60546875 C-0.42474498 69.46909167 -0.90279805 72.33235782 -1.3828125 75.1953125 C-2.3267688 74.96473145 -2.3267688 74.96473145 -3.28979492 74.72949219 C-9.53641158 73.22507862 -14.51467283 72.0778633 -20.3828125 75.1953125 C-26.01506219 76.42482447 -31.70271801 76.59482137 -37.4453125 76.7578125 C-38.42564453 76.82033203 -39.40597656 76.88285156 -40.41601562 76.94726562 C-43.27986202 77.01142512 -45.62115834 76.96633702 -48.3828125 76.1953125 C-54.64811446 70.11790842 -55.48765112 61.46097247 -55.6328125 53.1953125 C-55.52466647 36.58488287 -54.66752165 19.04943994 -49.3828125 3.1953125 C-46.0828125 3.1953125 -42.7828125 3.1953125 -39.3828125 3.1953125 C-39.23912153 12.81515696 -39.62205675 22.35261727 -40.18237305 31.95263672 C-40.32050821 34.32367176 -40.45267343 36.69498445 -40.58398438 39.06640625 C-40.67152572 40.61199899 -40.75940485 42.15757264 -40.84765625 43.703125 C-40.88624252 44.39302521 -40.9248288 45.08292542 -40.96458435 45.79373169 C-41.30774784 51.61492934 -41.85395929 57.37792714 -42.3828125 63.1953125 C-34.1328125 63.1953125 -25.8828125 63.1953125 -17.3828125 63.1953125 C-17.0528125 61.5453125 -16.7228125 59.8953125 -16.3828125 58.1953125 C-15.97998611 56.78828461 -15.55648911 55.38702204 -15.11328125 53.9921875 C-11.4416162 42.0592761 -9.03218325 30.25421999 -7.2421875 17.90234375 C-6.68594421 14.11694154 -6.09179996 10.34493899 -5.3984375 6.58203125 C-5.17849121 5.38453247 -5.17849121 5.38453247 -4.95410156 4.1628418 C-4.0838386 1.16564128 -3.11444282 0.2552822 0 0 Z " fill="#D1D1D1" transform="translate(669.3828125,163.8046875)"/>
<path d="M0 0 C3.42883528 2.12587787 4.76994399 3.65491599 7 7 C8.58329821 20.32498449 8.76179232 35.53736754 1 46.9375 C-5.8620991 51.65519313 -13.85869434 55.29148909 -22.34643555 54.60864258 C-26.32721396 53.69557968 -28.04156935 51.89508807 -30.58422852 48.78393555 C-33.29775379 43.44813132 -32.83534809 37.58448468 -32.63793945 31.73681641 C-32.5626595 29.50472912 -32.53550476 27.27618502 -32.51757812 25.04296875 C-32.2321938 6.84209958 -32.2321938 6.84209958 -27 0 C-19.64055317 -4.5956371 -7.92036948 -2.12237446 0 0 Z " fill="#090909" transform="translate(802,176)"/>
<path d="M0 0 C3.39069289 -0.23864886 6.61884782 -0.45046698 10 0 C12.625 2.5 12.625 2.5 14 5 C14.94875 4.34 15.8975 3.68 16.875 3 C20 1 20 1 22 1 C21.34 3.31 20.68 5.62 20 8 C20.66 8.66 21.32 9.32 22 10 C21.38511719 10.10957031 20.77023437 10.21914062 20.13671875 10.33203125 C19.32847656 10.49058594 18.52023437 10.64914063 17.6875 10.8125 C16.48673828 11.03873047 16.48673828 11.03873047 15.26171875 11.26953125 C12.04759136 12.30760003 10.62234059 13.99734016 8.875 16.8125 C6.08241515 23.79396212 6.67446989 31.76256929 6.5949707 39.16723633 C6.57334586 40.67918679 6.53918885 42.19101056 6.49243164 43.70239258 C5.86944064 53.65951062 5.86944064 53.65951062 9.72265625 62.4765625 C12.2845927 64.78363273 14.35538551 65.88417251 17.875 65.9375 C19.04675781 65.98197266 19.04675781 65.98197266 20.2421875 66.02734375 C20.82226562 66.01832031 21.40234375 66.00929688 22 66 C22 66.33 22 66.66 22 67 C20.35 67 18.7 67 17 67 C16.67 68.65 16.34 70.3 16 72 C15.01 72 14.02 72 13 72 C13.33 72.99 13.66 73.98 14 75 C8.25 73.125 8.25 73.125 6 72 C5.95174072 72.59280762 5.90348145 73.18561523 5.85375977 73.79638672 C5.2678167 80.33273744 4.21605794 86.69154944 2.9375 93.125 C2.75123047 94.08148438 2.56496094 95.03796875 2.37304688 96.0234375 C1.91941556 98.34975194 1.46029121 100.67499415 1 103 C-2.3 103 -5.6 103 -9 103 C-9.02513051 98.96558604 -9.04305855 94.93120375 -9.05493164 90.89672852 C-9.05989273 89.53050948 -9.06666372 88.16429556 -9.07543945 86.7980957 C-9.16178388 72.98806587 -8.04983426 59.65620976 -6 46 C-5.57541054 43.03738145 -5.16030804 40.07346002 -4.74609375 37.109375 C-4.63915192 36.34524292 -4.53221008 35.58111084 -4.42202759 34.79382324 C-4.20374784 33.2333466 -3.98568081 31.67284019 -3.76782227 30.11230469 C-3.54659087 28.53016504 -3.32457853 26.94813441 -3.10180664 25.36621094 C-1.91289191 16.92135567 -0.75925305 8.49680945 0 0 Z " fill="#DDDDDD" transform="translate(764,164)"/>
<path d="M0 0 C4.96011862 4.04907643 7.29447913 7.65031216 8 14 C8.20186806 21.65545812 7.54194199 29.13864101 6.75 36.75 C6.61940186 38.01739014 6.48880371 39.28478027 6.35424805 40.59057617 C5.16660748 51.52886299 3.31468771 62.24903932 1 73 C-2.3 73 -5.6 73 -9 73 C-9 52.54 -9 32.08 -9 11 C-14.28 10.67 -19.56 10.34 -25 10 C-25.99 9.67 -26.98 9.34 -28 9 C-27.57811541 7.1838018 -27.13700835 5.37205927 -26.6875 3.5625 C-26.44386719 2.55316406 -26.20023438 1.54382813 -25.94921875 0.50390625 C-25.63597656 -0.32238281 -25.32273437 -1.14867187 -25 -2 C-16.97360028 -4.67546657 -7.69314945 -3.18554306 0 0 Z " fill="#E1E1E1" transform="translate(595,166)"/>
<path d="M0 0 C5.82540463 4.51064317 5.82540463 4.51064317 6.64111328 8.55761719 C7.02659397 13.27572904 6.71221827 17.91511524 6.25 22.6171875 C2.95 22.6171875 -0.35 22.6171875 -3.75 22.6171875 C-6.72 17.1721875 -6.72 17.1721875 -9.75 11.6171875 C-12.62525669 11.56293737 -15.49947646 11.52339473 -18.375 11.4921875 C-19.18324219 11.47542969 -19.99148438 11.45867187 -20.82421875 11.44140625 C-25.55093815 11.40297764 -29.30387702 11.78981656 -33.75 13.6171875 C-33.75 17.5771875 -33.75 21.5371875 -33.75 25.6171875 C-32.1 26.2771875 -30.45 26.9371875 -28.75 27.6171875 C-28.70745644 29.61673496 -28.70919217 31.61760386 -28.75 33.6171875 C-29.08 33.9471875 -29.41 34.2771875 -29.75 34.6171875 C-35.40359927 34.56770304 -41.95976703 33.80286811 -46.75 30.6171875 C-49.61903916 24.64002258 -49.23245612 17.99438032 -48.3125 11.5546875 C-44.6932405 4.75047964 -37.96413153 -0.21291638 -30.7578125 -2.765625 C-20.84775511 -4.7991173 -9.14470594 -4.59833225 0 0 Z " fill="#E2E2E2" transform="translate(739.75,166.3828125)"/>
<path d="M0 0 C3.3 0 6.6 0 10 0 C10.14369097 9.61984446 9.76075575 19.15730477 9.20043945 28.75732422 C9.06230429 31.12835926 8.93013907 33.49967195 8.79882812 35.87109375 C8.34488731 43.92972614 7.81947421 51.96849103 7 60 C8.01356567 60.18429565 8.01356567 60.18429565 9.04760742 60.37231445 C14.89594291 61.44949791 20.41154823 62.97519863 26 65 C26 67.31 26 69.62 26 72 C21.4354253 73.5215249 16.90813354 73.43014817 12.125 73.5625 C11.13113281 73.62501953 10.13726563 73.68753906 9.11328125 73.75195312 C6.20483953 73.81619581 3.80878564 73.76852951 1 73 C-4.2187661 67.97559194 -5.78513467 60.76700061 -6.18359375 53.78125 C-6.49560343 36.01505172 -5.6519795 16.95593851 0 0 Z " fill="#EBEBEB" transform="translate(620,167)"/>
<path d="M0 0 C3.3 0 6.6 0 10 0 C8.52232663 24.05107835 6.30718582 48.01635002 4 72 C2.22340564 72.08105278 0.44575546 72.13921479 -1.33203125 72.1875 C-2.32178955 72.22230469 -3.31154785 72.25710937 -4.33129883 72.29296875 C-7 72 -7 72 -8.6159668 70.67578125 C-9.6875 69 -9.6875 69 -11 66 C-11.99 66.495 -11.99 66.495 -13 67 C-13.12375 66.030625 -13.2475 65.06125 -13.375 64.0625 C-13.58125 63.051875 -13.7875 62.04125 -14 61 C-14.66 60.67 -15.32 60.34 -16 60 C-15.40251953 59.35998047 -15.40251953 59.35998047 -14.79296875 58.70703125 C-6.12189369 48.47474073 -5.87442807 32.6686473 -3.875 19.8125 C-3.47973911 17.28085641 -3.08310155 14.7494627 -2.68240356 12.21867371 C-2.43536902 10.65775747 -2.19148447 9.0963386 -1.95114136 7.53437805 C-1.1123915 2.22478299 -1.1123915 2.22478299 0 0 Z " fill="#E3E3E3" transform="translate(958,167)"/>
<path d="M0 0 C1.05058594 -0.04576172 2.10117188 -0.09152344 3.18359375 -0.13867188 C10.64419608 -0.24741323 10.64419608 -0.24741323 13.60180664 1.58447266 C15.91236436 4.06713214 16.72158582 6.18013941 17.08984375 9.515625 C16.95707031 10.56234375 16.82429688 11.6090625 16.6875 12.6875 C16.5534375 13.81027344 16.419375 14.93304688 16.28125 16.08984375 C15.56990692 20.57235123 14.77796667 25.01624528 13.75 29.4375 C-0.69513001 33.89849603 -0.69513001 33.89849603 -8.5625 31.375 C-11.99462383 28.90067817 -13.34550132 26.47354032 -14.25 22.4375 C-15.00849218 15.37027922 -13.95761627 8.30535815 -12.25 1.4375 C-9.75217543 -1.06032457 -3.34869636 0.05871354 0 0 Z " fill="#E5DCFD" transform="translate(191.25,178.5625)"/>
<path d="M0 0 C3.05850677 1.10205305 4.61714749 2.07820411 6.8046875 4.45703125 C9.35961429 9.89251275 9.00237599 16.19031058 8 22 C6.12963263 24.60881213 5.11247964 24.96250679 2 26 C-0.39273435 26.14759453 -2.79039146 26.22114814 -5.1875 26.25 C-6.45980469 26.27578125 -7.73210937 26.3015625 -9.04296875 26.328125 C-13.60601278 25.9497482 -16.80272193 24.77415536 -21 23 C-21.11608726 19.72946483 -21.18720711 16.4594582 -21.25 13.1875 C-21.28351563 12.25873047 -21.31703125 11.32996094 -21.3515625 10.37304688 C-21.36445313 9.48037109 -21.37734375 8.58769531 -21.390625 7.66796875 C-21.41157227 6.84578857 -21.43251953 6.0236084 -21.45410156 5.17651367 C-21 3 -21 3 -19.21484375 1.24194336 C-13.86713596 -1.75671069 -5.93747917 -0.94011305 0 0 Z " fill="#F6F2FC" transform="translate(257,179)"/>
<path d="M0 0 C0.82741699 0.01047363 1.65483398 0.02094727 2.50732422 0.03173828 C3.40322266 0.03818359 4.29912109 0.04462891 5.22216797 0.05126953 C6.62789062 0.07640625 6.62789062 0.07640625 8.06201172 0.10205078 C9.47933594 0.11558594 9.47933594 0.11558594 10.92529297 0.12939453 C13.26278464 0.15300556 15.59977295 0.18593562 17.93701172 0.22705078 C21.5773358 19.14373484 21.5773358 19.14373484 18.89794922 24.18017578 C15.90754408 27.46195372 13.56392877 28.1678348 9.13232422 28.58642578 C5.38507417 28.66041692 1.67480216 28.48682 -2.06298828 28.22705078 C-6.32174176 21.93017956 -8.2462978 16.85562065 -7.06298828 9.22705078 C-4.5181424 0.49726301 -4.5181424 0.49726301 0 0 Z " fill="#F1EBFD" transform="translate(125.06298828125,179.77294921875)"/>
<path d="M0 0 C3.4833494 -0.56770886 6.53766612 -0.76604767 10 0 C12.32564968 2.12727303 13.90856887 4.29705651 15.625 6.93359375 C16.83644898 9.12526479 16.83644898 9.12526479 19 10 C19 10.66 19 11.32 19 12 C21.475 12.495 21.475 12.495 24 13 C24 13.66 24 14.32 24 15 C24.94875 15.103125 25.8975 15.20625 26.875 15.3125 C31.73491554 15.9910919 36.33803874 17.5085476 41 19 C41 19.99 41 20.98 41 22 C35.78106136 23.73964621 30.27585096 23.31183987 24.8125 23.375 C23.60529297 23.41238281 22.39808594 23.44976562 21.15429688 23.48828125 C13.8474536 23.56019113 8.47564663 23.15086563 3 18 C-0.21255588 14.14367064 -0.33702896 11.12195557 -0.1875 6.1875 C-0.16042969 5.02605469 -0.13335938 3.86460937 -0.10546875 2.66796875 C-0.07066406 1.78753906 -0.03585937 0.90710938 0 0 Z " fill="#EAEAEA" transform="translate(686,217)"/>
<path d="M0 0 C3.39036211 2.46803095 5.33096017 5.1668229 7 9 C7.55233403 13.73215914 7.42464459 18.26150559 7 23 C4.03 23 1.06 23 -2 23 C-2.16628906 22.21753906 -2.33257813 21.43507812 -2.50390625 20.62890625 C-3.85508213 16.7149835 -4.85463966 14.76240949 -8 12 C-14.74519004 10.42231593 -21.87890551 10.85417363 -28.75683594 11.14428711 C-31 11 -31 11 -33 9 C-31.07897718 5.35005664 -29.90074708 3.41672085 -26 2 C-23.26909716 1.72914358 -20.61089428 1.53783244 -17.875 1.4375 C-11.90187334 1.18906022 -5.78563623 -1.53729652 0 0 Z " fill="#EDEDED" transform="translate(1032,166)"/>
<path d="M0 0 C-5.50483104 3.66988736 -11.68753131 3.26360782 -18.1171875 3.4296875 C-23.53157705 3.6748674 -26.97972022 4.83006986 -30.6875 8.8125 C-32.26374307 11.43957178 -33.13417906 14.06952913 -34 17 C-35.47831221 17.19412181 -36.95769316 17.38012131 -38.4375 17.5625 C-39.26121094 17.66691406 -40.08492187 17.77132812 -40.93359375 17.87890625 C-41.61550781 17.91886719 -42.29742188 17.95882812 -43 18 C-43.33 17.67 -43.66 17.34 -44 17 C-44.66 17.66 -45.32 18.32 -46 19 C-45.71179861 12.37136802 -43.48950326 6.94533405 -39 2 C-27.53718542 -4.89532385 -12.45528748 -2.59775083 0 0 Z " fill="#CECECE" transform="translate(1030,165)"/>
<path d="M0 0 C0.66 0.33 1.32 0.66 2 1 C2.85776362 4.38236049 3.59004616 7.75757205 4.23632812 11.18554688 C4.72271804 13.62536834 4.72271804 13.62536834 6 17 C8.49119649 18.59937176 8.49119649 18.59937176 11 19 C11.04254356 20.99954746 11.04080783 23.00041636 11 25 C10.67 25.33 10.34 25.66 10 26 C3.86416876 25.94629469 -1.38768414 24.34696845 -7 22 C-7.86112581 6.95900243 -7.86112581 6.95900243 -4.625 3.125 C-2 1 -2 1 0 0 Z " fill="#F6F6F6" transform="translate(700,175)"/>
<path d="M0 0 C0.75925781 -0.01998047 1.51851562 -0.03996094 2.30078125 -0.06054688 C6.04265545 -0.05727028 8.06737587 0.09100012 11.03125 2.46484375 C11.5159375 3.11582031 12.000625 3.76679688 12.5 4.4375 C11.80003906 4.18742188 11.10007812 3.93734375 10.37890625 3.6796875 C6.22631054 3.33035109 4.6629079 5.02621212 1.4375 7.5625 C-0.09583984 8.74199219 -0.09583984 8.74199219 -1.66015625 9.9453125 C-4.87470003 12.76632891 -7.57751665 15.5925333 -9.5 19.4375 C-10.16 19.4375 -10.82 19.4375 -11.5 19.4375 C-11.83 20.7575 -12.16 22.0775 -12.5 23.4375 C-12.61608726 20.16696483 -12.68720711 16.8969582 -12.75 13.625 C-12.78351563 12.69623047 -12.81703125 11.76746094 -12.8515625 10.81054688 C-12.86445313 9.91787109 -12.87734375 9.02519531 -12.890625 8.10546875 C-12.91157227 7.28328857 -12.93251953 6.4611084 -12.95410156 5.61401367 C-12.5 3.4375 -12.5 3.4375 -10.72363281 1.67285156 C-7.29274368 -0.23319795 -3.82125306 -0.03568233 0 0 Z " fill="#E1D5FC" transform="translate(248.5,178.5625)"/>
<path d="M0 0 C1.09543503 -0.00128164 1.09543503 -0.00128164 2.21300006 -0.00258917 C4.66047794 -0.00423651 7.10788731 0.00126521 9.55535889 0.00672913 C11.30962116 0.00701118 13.06388355 0.0068529 14.81814575 0.00628662 C19.58223008 0.00599938 24.34628929 0.01188439 29.11036777 0.01886058 C34.08851049 0.02510619 39.06665377 0.02569887 44.0447998 0.02688599 C53.47240265 0.02999573 62.89999391 0.03820433 72.32759166 0.04823548 C83.06024769 0.05940767 93.79290427 0.06490986 104.52556467 0.06993091 C126.60418744 0.08038722 148.68279978 0.09797979 170.76141357 0.12025452 C170.76141357 0.45025452 170.76141357 0.78025452 170.76141357 1.12025452 C169.91272359 1.12448646 169.0640336 1.1287184 168.18962574 1.13307858 C147.49728171 1.23658069 126.80497035 1.34524683 106.1126833 1.45959377 C96.10587496 1.51476875 86.09906305 1.56822405 76.09222412 1.61756897 C67.36581766 1.66060435 58.63943579 1.70692952 49.91306752 1.75713307 C45.29659426 1.78357906 40.68012539 1.80842658 36.06362343 1.82932854 C31.70933779 1.8490954 27.35509826 1.87329494 23.00085449 1.90074539 C21.41150448 1.91001089 19.82214443 1.91772247 18.23277855 1.92367363 C16.04335862 1.93211681 13.85405845 1.94513755 11.66468811 1.96203613 C10.64979433 1.96980585 10.64979433 1.96980585 9.61439764 1.97773254 C4.11145783 2.05085636 -1.32262416 2.49900987 -6.79035664 3.10403538 C-7.59827247 3.10938769 -8.4061883 3.11474001 -9.23858643 3.12025452 C-9.89858643 2.46025452 -10.55858643 1.80025452 -11.23858643 1.12025452 C-7.48630113 -0.07382324 -3.91769805 -0.00275894 0 0 Z " fill="#846DD4" transform="translate(111.23858642578125,59.87974548339844)"/>
<path d="M0 0 C0.33 0 0.66 0 1 0 C1 41.25 1 82.5 1 125 C0.34 125 -0.32 125 -1 125 C-0.938125 125.94875 -0.87625 126.8975 -0.8125 127.875 C-0.874375 128.90625 -0.93625 129.9375 -1 131 C-4 133 -4 133 -7.1875 132.625 C-8.115625 132.41875 -9.04375 132.2125 -10 132 C-10 131.67 -10 131.34 -10 131 C-8.02 130.67 -6.04 130.34 -4 130 C-1.27242761 122.51009026 -0.55714341 115.783508 -0.56762695 107.84912109 C-0.55233948 106.09128799 -0.55233948 106.09128799 -0.53674316 104.29794312 C-0.50674874 100.45639175 -0.49736769 96.61509031 -0.48828125 92.7734375 C-0.47142452 90.09728248 -0.45341669 87.42115988 -0.43388367 84.74502563 C-0.39038111 78.44134262 -0.36173484 72.13768515 -0.33856028 65.83389819 C-0.31142095 58.65113957 -0.26751524 51.46851316 -0.22227156 44.28584933 C-0.12965834 29.5239779 -0.0578714 14.76204955 0 0 Z " fill="#251947" transform="translate(340,136)"/>
<path d="M0 0 C2.97 0 5.94 0 9 0 C9 0.66 9 1.32 9 2 C10.5634314 1.98428955 10.5634314 1.98428955 12.15844727 1.96826172 C16.10030554 1.93150846 20.04214939 1.9089027 23.98413086 1.89013672 C25.67621423 1.88020308 27.36828102 1.86665157 29.06030273 1.84912109 C39.90535465 1.7397376 50.28747175 2.21407526 61 4 C61 4.33 61 4.66 61 5 C58.16660035 5.02724423 55.33346883 5.04695589 52.5 5.0625 C51.31277344 5.07506836 51.31277344 5.07506836 50.1015625 5.08789062 C45.74889978 5.10572941 41.6101127 4.85610044 37.29101562 4.24731445 C30.87519235 3.55472824 24.35736818 3.6262389 17.91015625 3.48242188 C11.63047577 3.29690177 6.01713666 2.83939698 0 1 C0 0.67 0 0.34 0 0 Z " fill="#8268D4" transform="translate(85,311)"/>
<path d="M0 0 C0.99 0.33 1.98 0.66 3 1 C2.67 1.66 2.34 2.32 2 3 C1.84876169 4.5195764 1.75118307 6.04472502 1.68359375 7.5703125 C1.64169922 8.46621094 1.59980469 9.36210937 1.55664062 10.28515625 C1.51732422 11.22230469 1.47800781 12.15945312 1.4375 13.125 C1.39431641 14.06988281 1.35113281 15.01476562 1.30664062 15.98828125 C1.20040928 18.32537092 1.09836824 20.6625683 1 23 C6.33673741 24.48505664 11.04367991 25.29516671 16.625 25.3125 C17.87539062 25.32925781 19.12578125 25.34601563 20.4140625 25.36328125 C24.25159814 24.9745113 26.69096464 23.92942216 30 22 C28.63016497 25.16115776 28.0109362 25.9927092 25 28 C15.76024059 28.78932618 8.27330931 28.13665465 0 24 C0 16.08 0 8.16 0 0 Z " fill="#9175E6" transform="translate(235,179)"/>
<path d="M0 0 C2.31 0 4.62 0 7 0 C7.99 2.64 8.98 5.28 10 8 C16.14088441 8.08943036 21.94042403 8.0538393 28 7 C31.33512899 6.91409516 34.66455403 6.94067389 38 7 C38.33 6.34 38.66 5.68 39 5 C39 5.99 39 6.98 39 8 C36.03 8 33.06 8 30 8 C30 8.66 30 9.32 30 10 C28.96359375 10.06058594 27.9271875 10.12117188 26.859375 10.18359375 C25.48957127 10.26803371 24.11978025 10.35267997 22.75 10.4375 C21.72712891 10.49647461 21.72712891 10.49647461 20.68359375 10.55664062 C17.9390577 10.7298395 15.3458437 10.90477614 12.6875 11.63671875 C11 12 11 12 8.25 10.375 C6 8 6 8 5.6875 5.25 C5.790625 4.5075 5.89375 3.765 6 3 C3.03 2.505 3.03 2.505 0 2 C0 1.34 0 0.68 0 0 Z " fill="#0E0728" transform="translate(170,345)"/>
<path d="M0 0 C0.99 0.33 1.98 0.66 3 1 C2.57847656 1.69867188 2.15695313 2.39734375 1.72265625 3.1171875 C1.17480469 4.02726562 0.62695312 4.93734375 0.0625 5.875 C-0.75541016 7.23238281 -0.75541016 7.23238281 -1.58984375 8.6171875 C-2.43898017 10.05201636 -3.25437724 11.50875448 -4 13 C-4.928125 13 -5.85625 13 -6.8125 13 C-10.14399361 13.6455008 -10.14399361 13.6455008 -11.28515625 16.28515625 C-12.28590683 18.83545611 -13.19242419 21.38250429 -14 24 C-14.97591583 20.61682513 -14.85856655 18.4342662 -14 15 C-13.34 15 -12.68 15 -12 15 C-12 14.01 -12 13.02 -12 12 C-8.91190305 10.23537317 -7.76687864 10 -4 10 C-3.896875 9.278125 -3.79375 8.55625 -3.6875 7.8125 C-2.94013068 4.75508007 -1.71954811 2.61670365 0 0 Z " fill="#0A0424" transform="translate(65,76)"/>
<path d="M0 0 C0.66 0.33 1.32 0.66 2 1 C0.34197245 3.21070341 -0.69814192 4.55817681 -3 6 C-6.37425965 6.43788102 -9.61677147 6.29562191 -13 6 C-13 6.66 -13 7.32 -13 8 C-13.66 8 -14.32 8 -15 8 C-15 9.98 -15 11.96 -15 14 C-15.99 14.33 -16.98 14.66 -18 15 C-16.125 7.375 -16.125 7.375 -15 4 C-14.25234375 3.96261719 -13.5046875 3.92523438 -12.734375 3.88671875 C-11.74953125 3.82097656 -10.7646875 3.75523437 -9.75 3.6875 C-8.77546875 3.62949219 -7.8009375 3.57148438 -6.796875 3.51171875 C-3.74658389 2.95363476 -2.29288724 2.03630224 0 0 Z " fill="#160D37" transform="translate(232,319)"/>
<path d="M0 0 C1.13764351 4.26616316 2 7.56486311 2 12 C2.66 12 3.32 12 4 12 C4.33 14.97 4.66 17.94 5 21 C2.85357551 17.78036326 1.64118646 14.55570141 0.375 10.9375 C0.14554688 10.30005859 -0.08390625 9.66261719 -0.3203125 9.00585938 C-2 4.261742 -2 4.261742 -2 2 C-5.96 2 -9.92 2 -14 2 C-14 1.67 -14 1.34 -14 1 C-9.27616037 0.34843591 -4.78025483 -0.11950637 0 0 Z " fill="#836ACF" transform="translate(163,315)"/>
<path d="M0 0 C-3 2 -3 2 -6 2 C-6.061875 2.680625 -6.12375 3.36125 -6.1875 4.0625 C-7.26401385 7.95451162 -9.25665032 11.03444754 -12 14 C-12.66 14 -13.32 14 -14 14 C-12.63826252 8.92443303 -10.55276743 4.85729036 -7 1 C-2.74725275 -1.37362637 -2.74725275 -1.37362637 0 0 Z " fill="#8368D8" transform="translate(75,75)"/>
<path d="M0 0 C0.474375 0.474375 0.94875 0.94875 1.4375 1.4375 C5.11644797 3.68076096 8.7621112 3.73739578 13 4 C13 4.33 13 4.66 13 5 C11.35 5 9.7 5 8 5 C8 5.99 8 6.98 8 8 C4.625 7.6875 4.625 7.6875 1 7 C-1 4 -1 4 -0.625 1.8125 C-0.41875 1.214375 -0.2125 0.61625 0 0 Z " fill="#CECECE" transform="translate(773,226)"/>
<path d="M0 0 C1.98 0 3.96 0 6 0 C6 0.33 6 0.66 6 1 C4.35 1.33 2.7 1.66 1 2 C0.81824219 2.78246094 0.63648438 3.56492187 0.44921875 4.37109375 C0.19785156 5.38300781 -0.05351563 6.39492187 -0.3125 7.4375 C-0.55613281 8.44683594 -0.79976562 9.45617187 -1.05078125 10.49609375 C-1.36402344 11.32238281 -1.67726562 12.14867188 -2 13 C-2.99 13.33 -3.98 13.66 -5 14 C-4.46515599 8.65155992 -2.53309233 4.64203897 0 0 Z " fill="#816ACF" transform="translate(55,89)"/>
<path d="M0 0 C1.32 0 2.64 0 4 0 C3.80664062 0.64066406 3.61328125 1.28132813 3.4140625 1.94140625 C1.9059252 6.95110985 0.42282214 11.96539857 -1 17 C-1.33 17 -1.66 17 -2 17 C-2.20858634 11.88963462 -1.49920142 7.87240461 0 3 C0 2.01 0 1.02 0 0 Z " fill="#886DDC" transform="translate(213,324)"/>
<path d="M0 0 C2.31 0 4.62 0 7 0 C7.25523437 0.83144531 7.25523437 0.83144531 7.515625 1.6796875 C8.90825986 6.25122977 8.90825986 6.25122977 12.1875 9.5 C12.785625 9.665 13.38375 9.83 14 10 C11.125 10.125 11.125 10.125 8 10 C6 8 6 8 5.875 5.375 C5.91625 4.59125 5.9575 3.8075 6 3 C3.03 2.505 3.03 2.505 0 2 C0 1.34 0 0.68 0 0 Z " fill="#1D1441" transform="translate(170,345)"/>
<path d="M0 0 C0.66 0.33 1.32 0.66 2 1 C-0.38216765 4.83793677 -2.77383913 6.43475523 -7 8 C-10.01954376 8.23189307 -12.97890741 8.18126556 -16 8 C-13.3793715 6.63703919 -10.7899873 5.52700733 -8 4.5625 C-4.91503075 3.43441423 -2.49908666 2.18670083 0 0 Z " fill="#130A2E" transform="translate(298,306)"/>
<path d="M0 0 C0.66 0.33 1.32 0.66 2 1 C2.08086147 2.79093191 2.13912702 4.58289628 2.1875 6.375 C2.22230469 7.37273437 2.25710937 8.37046875 2.29296875 9.3984375 C2.19628906 10.25695312 2.09960938 11.11546875 2 12 C1.01 12.66 0.02 13.32 -1 14 C-1.99 13.67 -2.98 13.34 -4 13 C-3.27876953 12.41798828 -3.27876953 12.41798828 -2.54296875 11.82421875 C-0.54250502 9.45911353 -0.51123932 7.87308547 -0.3125 4.8125 C-0.21388672 3.46091797 -0.21388672 3.46091797 -0.11328125 2.08203125 C-0.05720703 1.05142578 -0.05720703 1.05142578 0 0 Z " fill="#977AE7" transform="translate(145,192)"/>
<path d="M0 0 C0.99 0.33 1.98 0.66 3 1 C2.525625 1.763125 2.05125 2.52625 1.5625 3.3125 C-0.85247845 7.46626294 -1.11337173 10.4564287 -1.0625 15.1875 C-1.05347656 16.27417969 -1.04445313 17.36085937 -1.03515625 18.48046875 C-1.02355469 19.31191406 -1.01195313 20.14335937 -1 21 C-1.66 21 -2.32 21 -3 21 C-3.0816082 18.62429457 -3.14077222 16.25144159 -3.1875 13.875 C-3.22520508 12.87726563 -3.22520508 12.87726563 -3.26367188 11.859375 C-3.33320714 7.13097708 -2.40278375 4.04878521 0 0 Z " fill="#9379E7" transform="translate(120,180)"/>
<path d="M0 0 C2.35119399 3.52679099 2.21443452 5.02879485 2.125 9.1875 C2.10695313 10.27417969 2.08890625 11.36085937 2.0703125 12.48046875 C2.03550781 13.72763672 2.03550781 13.72763672 2 15 C1.01 15.495 1.01 15.495 0 16 C-1.24581251 11.17247654 -2.29771645 4.59543291 0 0 Z " fill="#CBCBCB" transform="translate(692,179)"/>
<path d="M0 0 C1.13643966 3.40931897 0.86747764 4.00335456 -0.4375 7.1875 C-0.72496094 7.90292969 -1.01242187 8.61835938 -1.30859375 9.35546875 C-1.53675781 9.89816406 -1.76492188 10.44085938 -2 11 C-3.98 11 -5.96 11 -8 11 C-8 10.34 -8 9.68 -8 9 C-6.35 9 -4.7 9 -3 9 C-2.814375 7.88625 -2.814375 7.88625 -2.625 6.75 C-2.04513299 4.19858515 -1.26291261 2.2732427 0 0 Z " fill="#8A70DC" transform="translate(338,256)"/>
<path d="M0 0 C1.65 0 3.3 0 5 0 C5.33 3.3 5.66 6.6 6 10 C2 5.375 2 5.375 2 2 C1.01 1.67 0.02 1.34 -1 1 C-0.67 0.67 -0.34 0.34 0 0 Z " fill="#ECE0FE" transform="translate(138,180)"/>
<path d="M0 0 C0.33 0 0.66 0 1 0 C0.91306859 1.79258558 0.80489496 3.58415144 0.6875 5.375 C0.62949219 6.37273437 0.57148438 7.37046875 0.51171875 8.3984375 C0.34285156 9.25695312 0.17398437 10.11546875 0 11 C-3 13 -3 13 -6.1875 12.625 C-7.5796875 12.315625 -7.5796875 12.315625 -9 12 C-9 11.67 -9 11.34 -9 11 C-7.02 10.67 -5.04 10.34 -3 10 C-2.01 6.7 -1.02 3.4 0 0 Z " fill="#130A34" transform="translate(339,256)"/>
<path d="M0 0 C0.33 0.99 0.66 1.98 1 3 C-2.17320782 6.53586014 -4.16743695 8.58578031 -9 9 C-6 6 -3 3 0 0 Z " fill="#11092B" transform="translate(310,296)"/>
<path d="M0 0 C2.74792483 3.40219265 6 7.48464588 6 12 C4 12 4 12 2.41796875 10.79296875 C0.6554843 8.56437271 0.51614215 7.12276172 0.3125 4.3125 C0.24675781 3.50425781 0.18101562 2.69601563 0.11328125 1.86328125 C0.07589844 1.24839844 0.03851563 0.63351563 0 0 Z " fill="#7D65CD" transform="translate(329,94)"/>
<path d="M0 0 C0.99 0.99 1.98 1.98 3 3 C2.01 3.495 2.01 3.495 1 4 C1.66 5.32 2.32 6.64 3 8 C1.125 7.75 1.125 7.75 -1 7 C-2.25 4.9375 -2.25 4.9375 -3 3 C-2.01 2.01 -1.02 1.02 0 0 Z " fill="#D9D9D9" transform="translate(908,226)"/>
<path d="M0 0 C1.98 0.66 3.96 1.32 6 2 C6 3.65 6 5.3 6 7 C6.66 7.33 7.32 7.66 8 8 C7.01 8 6.02 8 5 8 C3.61328125 6.25 3.61328125 6.25 2.3125 4 C1.87550781 3.2575 1.43851562 2.515 0.98828125 1.75 C0.66214844 1.1725 0.33601563 0.595 0 0 Z " fill="#8369D8" transform="translate(64,292)"/>
<path d="M0 0 C0.90550946 3.01150495 1.06723758 5.43770987 0.75 8.5625 C0.68296875 9.32691406 0.6159375 10.09132813 0.546875 10.87890625 C-0.09694852 13.37602176 -1.05228884 14.36120002 -3 16 C-2.40984815 10.49191603 -1.43336231 5.35121931 0 0 Z " fill="#7C64C5" transform="translate(49,104)"/>
<path d="M0 0 C0.66 0.33 1.32 0.66 2 1 C2 4.96 2 8.92 2 13 C-0.21279137 8.57441726 -0.60155317 5.86105133 -1 1 C-0.67 0.67 -0.34 0.34 0 0 Z " fill="#E8E8E8" transform="translate(703,177)"/>
<path d="M0 0 C5.75 1.625 5.75 1.625 8 5 C6.35 5.33 4.7 5.66 3 6 C0 2.25 0 2.25 0 0 Z " fill="#D1D1D1" transform="translate(591,165)"/>
<path d="M0 0 C-0.66 2.31 -1.32 4.62 -2 7 C-2.66 7 -3.32 7 -4 7 C-4 6.34 -4 5.68 -4 5 C-4.66 5 -5.32 5 -6 5 C-4.87312259 1.61936778 -3.78825335 0 0 0 Z " fill="#DDDDDD" transform="translate(786,165)"/>
<path d="M0 0 C3.37503669 1.1858237 5.64722731 2.27573689 8 5 C5.36 5.33 2.72 5.66 0 6 C0 4.02 0 2.04 0 0 Z " fill="#8569DA" transform="translate(302,66)"/>
<path d="M0 0 C1.98 0 3.96 0 6 0 C6 1.98 6 3.96 6 6 C3.97945196 4.35830472 1.97956942 2.69088222 0 1 C0 0.67 0 0.34 0 0 Z " fill="#8266D3" transform="translate(71,301)"/>
<path d="M0 0 C0.33 0 0.66 0 1 0 C0.88541307 1.43836751 0.75790884 2.87570966 0.625 4.3125 C0.55539062 5.11300781 0.48578125 5.91351563 0.4140625 6.73828125 C0 9 0 9 -2 12 C-2.66 12 -3.32 12 -4 12 C-2.66666667 8 -1.33333333 4 0 0 Z " fill="#150B35" transform="translate(329,268)"/>
<path d="M0 0 C0.99 0.66 1.98 1.32 3 2 C2.67 3.32 2.34 4.64 2 6 C2.99 6.33 3.98 6.66 5 7 C2.625 6.75 2.625 6.75 0 6 C-1.3125 3.9375 -1.3125 3.9375 -2 2 C-1.34 2 -0.68 2 0 2 C0 1.34 0 0.68 0 0 Z " fill="#D2D2D2" transform="translate(620,233)"/>
<path d="M0 0 C4 4.5 4 4.5 4 9 C4.66 9.33 5.32 9.66 6 10 C5.34 10.66 4.68 11.32 4 12 C3.32645501 10.56570999 2.66140299 9.12742943 2 7.6875 C1.62875 6.88699219 1.2575 6.08648437 0.875 5.26171875 C0 3 0 3 0 0 Z " fill="#846BD5" transform="translate(49,263)"/>
<path d="M0 0 C2.475 0.99 2.475 0.99 5 2 C5.33 4.64 5.66 7.28 6 10 C3.47650757 6.87567603 1.72743854 3.61939504 0 0 Z " fill="#0D0623" transform="translate(326,88)"/>
<path d="M0 0 C2.40072955 2.88087546 4.47291037 5.56404834 6 9 C2.83884224 7.63016497 2.0072908 7.0109362 0 4 C0 2.68 0 1.36 0 0 Z " fill="#11082C" transform="translate(55,279)"/>
<path d="M0 0 C0.66 0 1.32 0 2 0 C2 0.66 2 1.32 2 2 C3.32 2.33 4.64 2.66 6 3 C1.545 3.495 1.545 3.495 -3 4 C-2.34 3.67 -1.68 3.34 -1 3 C-0.67 2.01 -0.34 1.02 0 0 Z " fill="#CACACA" transform="translate(1014,236)"/>
<path d="M0 0 C5.94 0.99 5.94 0.99 12 2 C12 2.33 12 2.66 12 3 C8.37 3 4.74 3 1 3 C0.67 2.01 0.34 1.02 0 0 Z " fill="#9277E9" transform="translate(182,209)"/>
<path d="M0 0 C0.763125 0.0825 1.52625 0.165 2.3125 0.25 C1.6525 1.57 0.9925 2.89 0.3125 4.25 C-0.0175 3.59 -0.3475 2.93 -0.6875 2.25 C-2.3375 2.91 -3.9875 3.57 -5.6875 4.25 C-3.34903846 0.31153846 -3.34903846 0.31153846 0 0 Z " fill="#D9D9D9" transform="translate(671.6875,163.75)"/>
<path d="M0 0 C0.66 0.33 1.32 0.66 2 1 C0.02 3.97 0.02 3.97 -2 7 C-2.99 6.67 -3.98 6.34 -5 6 C-3.35 4.02 -1.7 2.04 0 0 Z " fill="#CCCCCC" transform="translate(475,134)"/>
</svg>
